<svg width="15" height="15" viewBox="0 0 15 15" fill="none" xmlns="http://www.w3.org/2000/svg">
<g clip-path="url(#clip0_47_373)">
<path d="M14.8487 7.12614L13.3662 5.59396L13.665 3.48281C13.7056 3.19568 13.5112 2.92812 13.2256 2.87802L11.1256 2.50983L10.1264 0.626385C9.99055 0.370151 9.67583 0.268159 9.41551 0.39538L7.49995 1.33187L5.58453 0.395452C5.32393 0.268087 5.00949 0.370294 4.87353 0.626457L3.87432 2.50991L1.77441 2.87809C1.48879 2.92812 1.29434 3.19575 1.33498 3.48288L1.63365 5.59404L0.151214 7.12614C-0.0504047 7.3345 -0.0504047 7.66527 0.151214 7.8737L1.63358 9.40594L1.33491 11.5172C1.29434 11.8042 1.48872 12.0718 1.77427 12.122L3.87425 12.4904L4.87353 14.3736C5.00942 14.6298 5.32393 14.732 5.58446 14.6046L7.49988 13.6684L9.41551 14.6046C9.49141 14.6417 9.57183 14.6593 9.65117 14.6593C9.84405 14.6593 10.03 14.5551 10.1264 14.3736L11.1256 12.4904L13.2256 12.122C13.5112 12.0719 13.7056 11.8042 13.665 11.5172L13.3662 9.40594L14.8488 7.8737C15.0504 7.66527 15.0504 7.33457 14.8487 7.12614ZM12.4109 8.84732C12.2957 8.96644 12.2418 9.13222 12.265 9.29643L12.5277 11.1529L10.6811 11.4769C10.5179 11.5056 10.3769 11.608 10.2992 11.7544L9.42045 13.4104L7.73597 12.5872C7.6615 12.5508 7.58072 12.5326 7.49988 12.5326C7.4191 12.5326 7.33832 12.5508 7.26385 12.5872L5.57951 13.4104L4.70079 11.7544C4.6231 11.608 4.48211 11.5056 4.31884 11.4769L2.47223 11.1529L2.73485 9.29643C2.75807 9.13229 2.70424 8.96651 2.58892 8.84739L1.28545 7.49999L2.58892 6.15274C2.70417 6.03361 2.75807 5.86783 2.73485 5.7037L2.47223 3.84727L4.31877 3.52352C4.48211 3.49492 4.6231 3.39243 4.70086 3.246L5.57951 1.58976L7.26378 2.41322C7.41272 2.48611 7.58689 2.48611 7.73597 2.41322L9.42038 1.58976L10.2991 3.246C10.3768 3.39243 10.5178 3.49492 10.6811 3.52352L12.5277 3.84727L12.265 5.7037C12.2418 5.8679 12.2956 6.03361 12.4109 6.15281L13.7144 7.49999L12.4109 8.84732Z" fill="white"/>
<path d="M5.79271 7.09419C6.51045 7.09419 7.09431 6.51033 7.09431 5.79273C7.09431 5.07484 6.51045 4.49084 5.79271 4.49084C5.07489 4.49084 4.49097 5.07484 4.49097 5.79273C4.49097 6.5104 5.07497 7.09419 5.79271 7.09419ZM5.79271 5.35093C6.03619 5.35093 6.23422 5.54911 6.23422 5.79273C6.23422 6.03614 6.03611 6.2341 5.79271 6.2341C5.54916 6.2341 5.35105 6.03606 5.35105 5.79273C5.35105 5.54911 5.54916 5.35093 5.79271 5.35093Z" fill="white"/>
<path d="M10.0965 4.90356C9.9286 4.73563 9.65617 4.73556 9.48838 4.90356L4.90354 9.48833C4.7356 9.65626 4.7356 9.92855 4.90354 10.0965C4.98754 10.1805 5.09756 10.2224 5.20765 10.2224C5.31767 10.2224 5.42776 10.1804 5.51176 10.0965L10.0965 5.51172C10.2644 5.34379 10.2644 5.0715 10.0965 4.90356Z" fill="white"/>
<path d="M9.20722 7.90576C8.48955 7.90576 7.90576 8.48962 7.90576 9.20722C7.90576 9.9251 8.48962 10.5091 9.20722 10.5091C9.9251 10.5091 10.5091 9.9251 10.5091 9.20722C10.5091 8.48962 9.9251 7.90576 9.20722 7.90576ZM9.20722 9.64909C8.96388 9.64909 8.76585 9.45091 8.76585 9.20729C8.76585 8.96396 8.96388 8.76592 9.20722 8.76592C9.45077 8.76592 9.64902 8.96396 9.64902 9.20729C9.64902 9.45084 9.45084 9.64909 9.20722 9.64909Z" fill="white"/>
</g>
<defs>
<clipPath id="clip0_47_373">
<rect width="15" height="15" fill="white"/>
</clipPath>
</defs>
</svg>
